<svg width="278" height="160" viewBox="0 0 278 160" fill="none" xmlns="http://www.w3.org/2000/svg">
<path d="M96.9884 40H103.549C103.899 40.5287 103.993 40.6289 104.483 41.033C104.721 42.6588 104.633 46.0334 104.633 47.8162L104.629 60.1246C104.629 62.2225 104.551 65.4345 104.746 67.4535C105.894 66.4314 107.251 65.1793 108.559 64.3305C110.792 62.8817 114.257 61.9725 116.927 61.9937C117.979 62.0782 119.133 62.4149 120.115 62.8231C120.989 63.1861 122.225 63.5053 123.035 63.966C125.613 65.4332 128.303 67.64 130.315 69.8058C131.722 71.3198 132.993 73.3143 133.698 75.2301C134.04 77.2692 133.931 80.7686 133.928 82.9095L133.92 96.0461C133.921 99.064 133.964 102.062 134 105.099C134.031 107.777 131.013 111.159 129.1 112.889C126.96 114.691 124.305 116.821 121.728 117.983C120.715 118.44 117.974 119.47 117.235 120H112.297C111.573 119.33 108.483 118.55 107.024 117.672C103.223 115.385 97.7048 111.347 96.4074 106.916C95.8859 105.136 96.0126 101.671 96.0158 99.7532L96.023 92.1723L96.0213 63.9428L96.0157 49.6886C96.013 47.1969 95.9836 44.6322 96.0586 42.1387C96.0839 41.2932 96.5653 40.7346 96.9884 40ZM115.028 111.937C115.848 111.873 116.33 111.606 117.084 111.4C120.156 110.56 123.211 108.2 124.618 105.319C125.319 103.885 125.176 100.381 125.176 98.6743L125.175 91.7446L125.173 83.7602C125.169 79.6694 125.726 76.123 122.14 73.2892C120.647 72.109 116.773 69.463 114.866 69.9105C112.928 70.0874 111.996 70.7033 110.371 71.5726C104.513 74.7083 104.626 77.9856 104.624 83.745L104.622 92.0032L104.625 98.8818C104.626 100.483 104.528 103.061 104.995 104.53C106.034 107.796 111.573 112.126 115.028 111.937Z" fill="white"/>
<path d="M28.3799 73.7731C27.2119 72.3818 25.4134 68.6602 27.366 67.3156C31.3338 64.5833 38.4162 61.732 43.2179 62.0202C48.8722 62.3597 54.2899 66.7971 57.958 70.8598C59.4185 72.4597 60.5097 74.8098 60.8452 76.9514C61.0851 78.4838 60.9755 80.755 60.9719 82.3416L60.9549 92.1321L60.9567 100.344C60.9612 101.407 61.0448 103.884 60.9487 104.773C60.4214 108.264 58.3277 111.075 55.7392 113.291C54.1437 114.657 52.7006 115.613 51.0966 116.783C49.6015 117.875 45.3016 119.136 44.4007 120H39.8949C38.7888 119.074 36.7214 118.585 35.445 118.034C32.4118 116.723 26.0874 111.575 25 108.581V94.3457C25.171 93.7696 25.4439 93.2299 25.8054 92.753C27.6842 90.3067 32.9733 86.5268 35.9904 86.0295C40.915 85.2177 46.6919 86.1201 51.6293 85.5118C53.0562 85.336 52.3512 77.2837 51.5273 75.9818C49.7236 73.1315 47.1154 71.2866 44.0167 70.0666C40.7868 68.902 36.1711 71.6824 33.1821 72.8669C31.4096 73.5693 30.3712 74.522 28.3799 73.7731ZM43.4505 111.583C46.8252 110.409 49.8907 108.43 51.6349 105.134C52.7514 103.024 52.5311 94.4597 52.0032 92.1472C48.8011 92.0989 44.1396 92.0026 41.0137 92.149C38.0022 92.1997 36.0837 93.4332 33.9384 95.4317C31.6457 97.5677 32.0616 100.184 32.0878 103.111C32.124 107.163 38.6666 111.568 42.3661 111.832C42.5939 111.848 43.2237 111.655 43.4505 111.583Z" fill="white"/>
<path d="M215.599 49.4393C217.123 49.0711 221.418 48.6319 222.825 49.5233C223.26 49.799 223.601 50.2822 223.91 50.6957C224.178 53.4211 223.948 56.6633 224.012 59.4451C224.031 60.2845 223.887 61.9303 224.04 62.6444C224.838 63.2888 234.157 62.6645 235.739 62.9745C236.293 63.0831 236.831 63.5824 237.222 63.9783C237.485 65.3773 237.669 68.2763 236.956 69.5977C236.737 70.0028 235.68 70.4401 235.192 70.4693C231.47 70.6928 227.639 70.4553 223.91 70.6174C224.075 73.0862 224.024 75.8156 224.024 78.3063L224.021 89.6564V100.922C224.021 102.905 224.083 105.507 223.963 107.463C224.847 109.321 226.648 111.03 228.625 111.709C231.04 112.538 233.153 111.345 235.511 110.94C236.21 111.139 236.517 111.232 237.131 111.626C237.679 113.535 238.121 115.243 237.97 117.244C236.233 119.412 233.446 118.613 231.744 120H227.197L227.168 119.978C226.592 119.552 224.316 118.643 223.459 118.241C220.02 116.628 215.633 112.367 215.168 108.571C214.944 106.735 215.024 103.278 215.024 101.273L215.025 87.7591L215.023 65.1259C215.008 60.72 214.983 56.2694 215.017 51.8616C215.023 51.0279 215.223 50.1902 215.599 49.4393Z" fill="white"/>
<path d="M170.201 41.8442C171.949 40.9196 175.545 40.5946 177.233 41.6952C177.451 42.0809 177.943 42.8734 177.955 43.2794C178.032 45.7923 177.987 48.4196 177.983 50.931L177.982 66.2877L177.996 118.124C177.516 118.766 177.131 119.332 176.689 120H170.948C170.393 119.173 170.194 118.893 170.024 117.897C170.15 111.928 170.029 105.438 170.029 99.4286L170.03 62.8615L170.027 50.5964C170.023 48.2043 169.953 45.4812 170.055 43.1179C170.09 42.6514 170.113 42.3068 170.201 41.8442Z" fill="white"/>
<path d="M146.13 120C145.715 119.448 145.131 118.768 145.106 118.095C144.982 114.79 145.033 111.346 145.033 108.044L145.038 88.2514L145.037 73.3564C145.036 72.2656 145.046 70.626 145.029 69.6369C144.916 63.9307 144.849 63.8939 150.69 64.0334C152.138 64.068 153.681 63.9265 153.837 65.7873C154.1 68.9053 153.956 72.4846 153.952 75.5993L153.951 93.2687L153.952 109.619C153.953 112.214 154.082 115.849 153.913 118.365C153.562 118.858 153.019 119.53 152.717 120H146.13Z" fill="white"/>
<path d="M74.1734 65.2711C74.7558 64.6291 75.4356 64.1349 76.4477 64.1055C77.9776 64.0612 81.1237 63.7302 82.3879 64.5279C82.8086 64.7934 82.9124 66.2345 82.9756 66.74C82.8556 70.8836 82.9081 75.167 82.9085 79.3224L82.9131 99.4075L82.9095 110.747C82.9095 112.143 82.8275 115.318 82.977 116.544C82.9945 117.139 83.0585 117.86 82.85 118.406L82.8233 118.478C82.5941 119.077 82.1655 119.507 81.7417 120H75.4285C75.3208 119.898 75.2187 119.791 75.1228 119.678C74.6628 119.139 74.1728 118.427 74.1288 117.724C73.9555 114.95 74.043 112.003 74.0437 109.217L74.0423 92.9093L74.0374 75.3111C74.0352 72.4978 73.8946 67.9539 74.1734 65.2711Z" fill="white"/>
<path d="M192.856 64.3081C194.062 64.0286 198.799 63.7899 200.11 64.2945C200.57 64.4718 200.801 65.4283 200.909 65.9131L200.881 100.058V111.226C200.881 113.427 200.82 116.221 201 118.38C200.638 118.979 200.301 119.438 199.885 120H193.315C192.982 119.549 192.166 118.506 192.119 118.031C191.947 116.245 192.012 114.171 192.012 112.377L192.018 100.262L192.019 77.9747C192.018 74.2037 191.959 70.3674 192.053 66.5984C192.076 65.6674 192.333 65.0716 192.856 64.3081Z" fill="white"/>
<path d="M246.429 64.5997C247.792 63.8832 251.521 63.909 253 64.161V120H247.264C246.988 119.611 246.552 119.095 246.248 118.709C245.962 117.144 246.06 113.573 246.06 111.809L246.061 100.099L246.063 78.3406C246.061 75.5803 245.777 66.6978 246.429 64.5997Z" fill="white"/>
<path d="M170.783 118C170.38 117.313 169.516 117.047 169.313 116.364C168.859 114.839 169.031 113.225 169.035 111.688L169.07 103.452L169.082 82.596V56.8871L169.031 49.0201C169.016 47.4782 168.937 45.9108 169.137 44.3702C169.192 43.9378 170.278 43.5105 170.9 43C170.513 45.3703 170.779 48.1014 170.795 50.5005L170.806 62.8018L170.802 99.4767C170.802 105.504 171.26 112.013 170.783 118Z" fill="white"/>
<path d="M82.1315 66.3305L82.6984 66C83.0573 66.2493 83.0021 66.6241 82.9893 66.9622C82.8463 70.7021 82.9101 74.4822 82.9114 78.2273L82.9102 96.8007L82.9096 109.967C82.9094 111.797 82.7613 114.89 82.9397 116.619L82.6127 116.738L82.9499 116.733L82.6906 116.809L82.8148 117C82.5994 116.762 82.4585 116.532 82.1335 116.373C81.9115 115.141 82.0334 111.951 82.0334 110.548L82.0386 99.1543L82.0318 78.9731C82.0313 74.7978 81.9533 70.4939 82.1315 66.3305Z" fill="white"/>
</svg>
