<svg width="662" height="160" viewBox="0 0 662 160" fill="none" xmlns="http://www.w3.org/2000/svg">
<path d="M515.671 41.189C537.395 39.0725 556.717 54.9777 558.814 76.7034C560.914 98.4291 544.99 117.738 523.263 119.818C501.561 121.895 482.28 105.996 480.186 84.2967C478.089 62.5969 493.972 43.3029 515.671 41.189ZM521.357 107.776C536.365 106.744 547.724 93.7861 546.779 78.7725C545.834 63.759 532.946 52.3255 517.925 53.1805C502.779 54.0426 491.231 67.065 492.183 82.2045C493.134 97.344 506.224 108.817 521.357 107.776Z" fill="white"/>
<path d="M577.241 41.1386L595.47 41.1318C603.249 41.1166 613.092 40.2381 620.389 43.2279C632.945 48.3709 639.004 63.7082 633.585 76.3117C630.588 83.2829 625.864 86.9262 618.976 89.683C620.955 92.5303 623.486 96.9138 625.363 99.9591C629.276 106.275 633.155 112.612 637 118.972L625.406 118.988C624.726 119.029 624.293 118.959 623.619 118.87C622.477 117.65 618.846 111.53 617.806 109.836C614.008 103.572 610.163 97.3355 606.278 91.1268C600.719 91.0925 595.161 91.1202 589.605 91.2094L589.62 118.992L577.216 118.997C576.889 93.6661 576.963 66.4881 577.241 41.1386ZM619.814 75.922C624.574 70.1683 625.128 60.8552 619.167 55.7894C617.475 54.3784 615.471 53.4107 613.327 52.9712C610.024 52.2641 594.022 52.6053 589.605 52.6318L589.611 79.9799C598.48 80.0056 613.222 81.8611 619.814 75.922Z" fill="white"/>
<path d="M313.028 41.0209L367.991 41L368 52.8392L325.451 52.8567L325.469 74.2358L363.638 74.2207L363.644 85.8857L330.669 85.8803L325.442 85.8907L325.446 107.168C338.624 107.638 354.642 107.256 367.984 107.198L368 118.986L313 119L313.028 41.0209Z" fill="white"/>
<path d="M422.843 40.5159C430.695 38.0845 446.463 44.7225 451.968 50.4968C456.573 55.3281 459.362 58.9434 462 65.0745C458.352 65.9502 453.684 67.4317 449.989 68.4812C443.261 53.2103 424.785 47.3252 410.992 57.1262C391.893 70.6991 397.244 103.223 421.796 107.547C428.568 108.765 435.544 107.193 441.15 103.185C445.24 100.326 447.643 96.5199 449.801 92.1434C453.807 93.3236 457.834 94.4287 461.881 95.4576C460.588 98.9711 458.179 102.971 455.855 105.87C449.597 113.711 440.478 118.712 430.532 119.763C420.215 120.904 409.866 117.893 401.748 111.388C393.508 104.68 388.279 94.9359 387.231 84.329C386.096 73.7974 389.173 63.2436 395.785 54.993C402.699 46.4123 411.993 41.6581 422.843 40.5159Z" fill="white"/>
<path d="M62.0742 41.128C66.5654 40.6097 70.9935 41.5702 73.2923 45.7727C76.7986 52.1826 79.6755 59.3843 82.5653 66.097C90.1132 83.5557 97.26 101.189 104 118.981L90.2059 119C83.0188 99.3509 74.2859 76.6011 65.5024 57.6958C65.2436 56.9669 65.1047 56.4098 64.5157 55.8959C62.3311 56.9034 40.6227 113.815 38.8124 118.992L25 118.994C29.6305 105.33 36.2817 90.5255 41.6831 77.0634C45.5294 67.4772 50.1607 57.4079 54.387 47.9401C56.1886 43.9048 58.0663 42.4289 62.0742 41.128Z" fill="white"/>
<path d="M282.086 41C286.293 41.1031 290.771 41.0265 295 41.0191C294.15 43.7304 292.968 46.7923 291.997 49.4952C284.325 72.3281 275.403 96.2167 267.326 118.992L249.476 119C246.248 111.08 242.565 99.4645 239.642 91.1835L222 41.0338L235.067 41.0479C237.877 48.1831 240.645 56.6782 243.22 63.9765L258.44 107.126L282.086 41Z" fill="white"/>
<path d="M123.201 41.0344L135.489 41C135.902 62.4812 135.533 85.6059 135.494 107.163C146.885 107.612 161.477 107.242 172.984 107.203L173 118.99L123.182 119C123.042 116.016 123.084 112.667 123.129 109.67C123.468 86.8708 122.64 63.8076 123.201 41.0344Z" fill="white"/>
<path d="M191.107 41.03L204 41L203.999 118.997L191.081 119C191.031 116.108 191.047 113.16 191.066 110.267C191.219 87.2036 190.819 64.0884 191.107 41.03Z" fill="white"/>
</svg>
