<svg width="233" height="160" viewBox="0 0 233 160" fill="none" xmlns="http://www.w3.org/2000/svg">
<path d="M163.313 20.1291C180.335 18.8986 197.459 26.4399 202.642 43.7616C203.202 45.6267 203.59 47.4069 204 49.3062C196.069 49.5185 187.321 49.3368 179.325 49.34C178.574 46.8862 177.574 44.9341 175.77 43.059C171.253 38.2477 161.472 38.146 156.95 42.9958C149.883 50.5761 151.193 63.6219 151.202 73.2131L151.2 100.969L126.861 100.959L109.886 75.0957C107.041 70.7576 103.814 65.5388 100.804 61.417C100.404 76.5751 96.0251 90.1289 81.2984 96.8329C70.7799 101.621 59.9345 100.972 48.694 100.969L25.0744 100.982C24.9116 88.6109 25.0667 75.8841 25.0664 63.4841L25.052 22.1183L49.2063 22.1197C57.5019 22.1192 63.9154 21.862 72.2099 23.1677L72.2001 38.4384C72.1984 40.8609 72.07 44.9503 72.4204 47.168C67.3335 39.7984 58.9419 40.5271 50.9701 40.5442C50.8242 54.4516 50.9607 68.5996 50.9651 82.5183L51.1003 82.5189C57.5699 82.5436 64.908 82.8585 69.8176 77.8373C74.6935 72.8505 74.9812 65.4838 74.8949 58.9534C74.8588 56.2145 74.8956 53.4239 74.8952 50.6689L74.8834 22.1253L99.2897 22.1039C101.781 26.2864 105.404 31.5003 108.125 35.6575L125.272 61.8286C125.439 38.2831 139.481 21.7684 163.313 20.1291Z" fill="white"/>
<path d="M169.039 58.0146C176.054 58.0638 183.067 58.0779 190.081 58.0568C194.887 58.057 200.266 58.1742 205 58L204.997 102.15L187.991 102.121C187.664 99.5122 187.358 96.9011 187.071 94.288C184.296 97.8572 180.128 100.337 175.956 101.951C168.423 104.513 160.923 104.446 153.169 102.994L153.193 86.188C153.195 83.6308 153.325 78.8255 153 76.4922C154.94 79.931 157.346 82.2615 161.149 83.5492C165.376 85.0205 170.026 84.7138 174.021 82.7001C177.18 81.1048 179.436 78.8246 180.538 75.4511C176.73 75.4014 172.857 75.4375 169.046 75.438L169.039 58.0146Z" fill="white"/>
<path d="M195.447 117.049C201.715 116.472 207.281 121.043 207.937 127.303C208.592 133.565 204.093 139.187 197.839 139.922C193.725 140.404 189.669 138.636 187.222 135.293C184.774 131.952 184.313 127.551 186.017 123.774C187.719 119.997 191.321 117.429 195.447 117.049Z" fill="white"/>
<path d="M195.291 123.059C202.136 122.156 202.624 131.932 197.834 133.944C191.404 134.698 190.75 127.585 193.639 124.116C194.018 123.662 194.725 123.329 195.291 123.059Z" fill="white"/>
<path d="M152.002 117.041L158.804 117C159.431 118.223 160.782 120.27 161.547 121.498L166.524 129.55C166.126 124.982 166.14 121.645 166.14 117.038L172.997 117.003C172.772 124.09 172.966 132.804 173 139.988C170.752 140.006 168.504 140.004 166.255 139.982C163.863 135.91 161.037 131.522 158.536 127.487C159.028 131.629 158.971 135.817 158.969 139.982C156.654 140.011 154.316 139.991 152 139.99L152.002 117.041Z" fill="white"/>
<path d="M132.758 117.011C135.159 117.029 137.56 117.025 139.961 117C139.954 119.466 140.158 139.352 139.698 139.971L139.063 139.988L132.738 139.986C132.672 137.124 132.746 133.975 132.764 131.094L126.107 131.096C126.242 133.668 126.152 137.323 126.163 139.975L119 140L119.002 117.006C121.039 117.111 124.068 117.026 126.166 117.029C126.068 119.341 126.126 122.341 126.1 124.7L132.771 124.711C132.719 122.144 132.716 119.577 132.758 117.011Z" fill="white"/>
<path d="M56 117.015C61.9463 117.147 68.4843 117.044 74.4644 117L74.4532 122.486C70.7789 122.437 67.1041 122.441 63.4299 122.501L63.4528 125.562L72.8829 125.584L72.8658 130.995C69.821 130.977 66.5933 130.899 63.5657 131.063C63.2954 131.615 63.4442 133.753 63.4715 134.493L75 134.511L74.9836 139.988L56.0306 140L56.0461 125.455C56.0481 122.834 56.1333 119.593 56 117.015Z" fill="white"/>
<path d="M95.1615 117.05C101.673 116.584 105.862 119.376 106.825 125.949C104.627 125.947 102.314 125.907 100.128 126.004C99.9326 125.377 99.7423 124.732 99.4236 124.16C98.1852 121.939 94.7565 121.693 93.3465 123.903C90.9448 127.668 91.9997 137.327 98.5293 133.861C100.095 133.03 99.2842 132.232 99.8542 131.305C100.851 130.616 102.962 130.837 104.207 130.869L107 130.9C105.988 136.219 103.45 139.311 97.8531 139.912C91.2681 140.635 85.5695 136.858 85.053 129.949C84.5239 122.871 87.9606 117.684 95.1615 117.05Z" fill="white"/>
<path d="M25 117.018C31.4945 117.142 38.4681 117.035 44.9803 117C45.0104 119.025 45.006 121.05 44.9671 123.075C42.8233 123.062 40.6796 123.063 38.536 123.078L38.54 133.128L38.5309 139.986L31.4039 140L31.4046 123.065L25.0314 123.044L25 117.018Z" fill="white"/>
<path d="M99.7106 82C100.129 82.4697 99.9703 84.2667 99.9705 84.9855C99.971 90.3013 99.9662 95.6175 99.9623 100.933C93.3487 100.92 84.6322 100.668 78.1412 101L78 100.946C78.0384 100.566 79.5055 100.174 80.0251 99.9828C82.39 99.1083 84.6544 98.0052 86.783 96.6906C93.0982 92.8104 96.5493 88.3628 99.7106 82Z" fill="white"/>
<path d="M126.124 21.0346C131.705 21.229 140.456 21.1784 146 21C139.834 24.93 139.066 24.9187 133.668 30.6001C130.335 34.2083 128.005 38.543 126.016 43C125.964 35.8526 126.048 28.1918 126.124 21.0346Z" fill="white"/>
</svg>
