<svg width="550" height="160" viewBox="0 0 550 160" fill="none" xmlns="http://www.w3.org/2000/svg">
<path d="M80.7515 89.6575L52.8731 110.922C45.5303 114.683 29.6631 117.298 25 97.6318V67.0691C26.0814 58.8786 32.9125 44.0851 51.5807 50.4614L80.7515 72.3853L107.981 52.4497C114.464 48.9161 130.41 45.2771 142.337 59.0949C146.014 63.525 152.581 75.7079 149.469 88.9983C147.306 96.3027 139.615 111.318 126.132 112.916C123.104 113.58 115.63 114.108 109.922 110.922C104.22 107.731 88.0996 95.4167 80.7515 89.6575ZM114.459 65.0808L92.4198 81.024L114.464 97.6371C133.132 102.948 137.801 87.8908 137.801 79.695C134.171 61.2677 120.731 62.2751 114.464 65.0756L114.459 65.0808Z" fill="white"/>
<path d="M224.997 118.253H199.086V41.5168H225.566C248.386 41.5168 262.549 56.1943 262.549 79.7848C262.549 103.523 248.486 118.253 224.997 118.253ZM212.685 106.613H224.279C240.964 106.613 248.798 96.8303 248.798 79.7848C248.798 62.887 240.864 53.1512 224.691 53.1512H212.685V106.613ZM291.398 119.34C280.015 119.34 272.029 111.819 272.029 97.8587V63.8679H285.01V95.8018C285.01 103.781 289.03 107.953 295.982 107.953C302.835 107.953 307.883 103.887 307.883 94.6152V63.8679H320.912V118.253H308.141V109.91C304.433 116.038 298.921 119.334 291.398 119.334V119.34ZM349.096 119.134C338.277 119.134 330.291 113.67 330.291 102.806C330.291 90.4435 340.44 87.4057 351.671 86.219C361.767 85.0851 365.217 84.9322 365.217 81.2246V80.8132C365.217 76.1721 361.508 72.8812 355.273 72.8812C348.943 72.8812 344.713 76.1774 344.354 80.7605H331.837C332.454 69.9488 341.316 62.7868 355.532 62.7868C369.701 62.7868 378.098 69.8434 378.098 81.1718V118.253H365.322V110.58H365.111C362.537 115.421 357.953 119.134 349.096 119.134ZM352.288 109.498C360.786 109.498 365.27 104.451 365.27 98.1171V92.2472C363.671 93.2756 358.623 94.0984 353.269 94.9264C347.704 95.7491 342.967 97.7585 342.967 102.7C342.967 106.972 346.622 109.504 352.288 109.504V109.498ZM402.564 41.5168V118.253H389.587V41.5168H402.564ZM414.105 118.253V63.8679H427.082V118.253H414.105ZM420.594 55.7829C416.163 55.7829 412.818 52.5869 412.818 48.3625C412.818 44.196 416.163 41 420.594 41C425.025 41 428.374 44.1908 428.374 48.3625C428.374 52.5869 425.025 55.7829 420.594 55.7829ZM468.143 63.8679V74.321H457.065V102.653C457.065 106.513 458.357 107.8 462.577 107.8H468.143V118.253H460.314C449.237 118.253 444.036 113.876 444.036 104.557V74.321H434.557V63.8679H444.036V49.0323H457.065V63.8679H468.143ZM499.513 119.493C483.182 119.493 472.98 107.594 472.98 91.1133C472.98 74.5794 483.751 62.6338 498.996 62.6338C514.663 62.6338 525.065 74.2207 525.065 90.9023V94.4623H485.708C486.02 103.323 491.068 109.245 499.824 109.245C506.365 109.245 510.744 106.102 512.236 101.466H524.395C522.338 112.125 512.236 119.493 499.513 119.493ZM485.814 85.5018H512.606C511.777 77.7227 506.729 72.9339 499.207 72.9339C491.69 72.9339 486.689 77.7227 485.814 85.5018Z" fill="white"/>
</svg>
