<svg width="584" height="160" viewBox="0 0 584 160" fill="none" xmlns="http://www.w3.org/2000/svg">
<path d="M388.081 62.6885C395.704 62.8341 403.423 62.6774 411.057 62.7074C421.074 62.7468 430.106 65.528 437.383 72.6416C444.054 79.1415 447.815 88.0401 447.818 97.3302C447.937 106.452 444.386 115.243 437.954 121.746C424.928 135.424 405.526 131.622 388.089 132.194C387.618 122.722 387.993 110.183 387.991 100.483C387.988 88.4448 387.642 74.6003 388.081 62.6885ZM399.318 121.539C410.03 121.584 420.596 122.982 428.975 115.185C444.31 101.956 435.402 73.9192 414.425 73.4233C409.787 73.3137 405.182 73.191 400.538 73.3419L399.479 73.4212C399.165 74.0048 399.318 117.216 399.318 121.539Z" fill="white"/>
<path d="M77.4225 28.1113C81.5503 27.3599 87.5127 30.5312 89.6156 34.1051C91.6259 37.522 92.9776 40.4946 94.5969 44.1025L100.695 57.8489C107.819 74.0302 114.704 90.3143 121.349 106.696C124.66 114.877 127.909 124.025 131.327 131.971C127.717 132.249 117.121 132.067 113.368 131.965C102.373 104.138 91.7923 73.4485 78.3268 46.7906C78.2657 46.6978 78.0811 46.6073 77.9728 46.5417C77.3428 47.5349 75.9805 50.8035 75.3919 52.0785C72.9865 57.285 70.6537 62.5247 68.3943 67.7957C59.3579 88.9905 50.8681 110.412 42.9329 132.038L25 131.99C27.684 123.883 31.7903 114.158 35.0484 106.108C41.7257 89.6695 48.6412 73.3284 55.7928 57.089C59.0859 49.6003 63.0245 39.7387 67.3435 32.902C69.2986 29.8073 73.8508 28.5263 77.4225 28.1113Z" fill="white"/>
<path d="M317.166 62.7236L338.045 62.6996C341.588 62.6975 346.734 62.5312 350.083 62.9443C352.529 63.2512 354.917 63.9092 357.176 64.8972C362.419 67.2462 366.517 71.5677 368.564 76.9152C370.78 82.5314 370.667 88.7925 368.25 94.3258C365.558 100.355 361.12 103.629 355.126 105.928L371.52 132.121C367.568 132.148 363.613 132.141 359.659 132.1C359.625 132.096 359.593 132.094 359.559 132.088C358.536 131.913 345.262 110.022 343.63 107.351L328.303 107.365C328.459 115.465 328.33 124.072 328.327 132.21C324.555 132.073 320.88 132.115 317.111 132.147C316.939 128.551 316.913 124.362 317.032 120.773C317.66 101.715 316.17 81.6569 317.166 62.7236ZM328.316 97.3306C336.45 97.3705 349.214 99.0893 355.562 93.8551C358.182 90.7502 359.559 88.1225 359.128 83.9643C357.622 69.465 342.858 73.446 332.651 72.931C331.14 72.8548 329.735 72.9854 328.301 72.9407C328.306 80.7459 328.501 89.5987 328.316 97.3306Z" fill="white"/>
<path d="M259.055 62.6731C264.166 62.825 269.681 62.7025 274.846 62.7511C275.981 64.8607 277.538 69.4356 278.414 71.8134L284.254 87.68C289.537 102.048 295.797 117.78 300.584 132.125L288.855 132.117C287.626 127.428 284.575 121.247 283.199 116.341L274.498 116.324L250.662 116.301C248.67 121.546 246.692 126.938 244.538 132.108L232.883 132.093L249.445 88.1151C252.473 80.0627 255.77 70.5382 259.055 62.6731ZM254.078 106.151L267.102 106.197L279.635 106.186C278.334 102.798 267.444 72.9255 266.931 72.494C266.044 74.3518 265.453 76.2306 264.682 78.1163C260.942 87.2653 257.936 97.0815 254.078 106.151Z" fill="white"/>
<path d="M517.787 62.7202C520.685 62.7344 531.278 62.3184 533.354 63.1448C534.598 64.3746 549.449 105.623 551.496 111.167L556.307 124.142C557.075 126.198 558.682 130.123 559.057 132.164L547.547 132.084C546.258 129.302 542.676 119.344 541.741 116.325L532.847 116.324L509.13 116.336C507.619 120.582 504.957 128.26 503.105 132.121L491.477 132.08L509.371 84.5162L514.628 70.3851C515.317 68.5451 516.794 64.2201 517.787 62.7202ZM512.66 106.183L525.186 106.197L538.222 106.167C536.983 103.041 525.976 72.7584 525.44 72.3411L512.66 106.183Z" fill="white"/>
<path d="M165.916 62.6875C169.605 62.7784 173.562 62.7096 177.271 62.7119C177.463 66.1459 177.217 72.1284 177.227 75.7723C177.248 83.4832 177.369 91.6491 177.144 99.3302C179.069 97.6238 184.191 91.3516 186.291 89.0684C194.173 80.5004 201.856 71.061 209.928 62.7067C214.582 62.6778 219.237 62.7064 223.891 62.7926C216.792 70.8222 209.452 78.681 202.312 86.6795C199.908 89.3724 197.468 92.0903 194.93 94.6566C198.625 98.5472 205.511 107.738 209.064 112.216C214.019 118.782 220.015 125.383 224.779 132.123C221.12 132.205 214.412 132.29 210.922 131.996C209.679 130.872 205.043 124.856 203.664 123.13L187.599 102.98C185.629 105.156 178.594 112.637 177.233 114.654C177.194 117.099 177.455 130.516 177.068 131.742C176.348 132.438 167.869 132.13 165.925 132.195C165.467 122.872 165.836 110.554 165.832 101.023C165.826 88.726 165.506 74.8763 165.916 62.6875Z" fill="white"/>
<path d="M464.291 62.6553C467.913 62.7459 471.534 62.7525 475.153 62.6747L475.172 132.096C472.419 132.287 467.31 132.128 464.315 132.165C464.061 124.271 464.265 115.185 464.265 107.176L464.291 62.6553Z" fill="white"/>
</svg>
