<svg width="516" height="160" viewBox="0 0 516 160" fill="none" xmlns="http://www.w3.org/2000/svg">
<path d="M58.884 41.2149C64.698 40.745 75.7728 41.0114 81.9312 41.0471C92.3258 41.1072 103.89 40.7731 114.184 41.1371C115.76 42.4185 118.557 45.4164 120.064 46.9405L130.768 57.7807C125.655 58.0922 117.993 57.8492 112.68 57.8434L79.048 57.8401C73.4913 57.8401 67.9454 57.7802 62.374 57.916C60.3282 57.966 58.0347 58.7695 57.732 61.2173C57.5021 63.0772 59.2893 64.8414 60.4383 66.1988C62.1237 67.528 67.1203 72.8648 68.9265 74.6856C75.5769 81.3492 82.1755 88.0647 88.7219 94.8315C83.0223 95.3142 71.518 95.0162 65.375 94.9732C61.6161 91.1023 57.822 87.2659 53.9939 83.4642C51.117 80.5871 46.5197 76.3348 44.3768 73.0336C42.8796 70.7103 41.8772 68.1001 41.4329 65.3674C40.006 56.8568 43.3659 49.5849 50.1908 44.4348C53.1455 42.2051 55.366 41.8069 58.884 41.2149Z" fill="white"/>
<path d="M74.0362 64.7534C76.3956 64.5474 89.7906 64.6024 91.9689 64.8067C95.0783 68.4887 99.5822 72.5565 102.987 76.01C110.16 83.2854 116.613 88.0888 116.059 99.2247C115.764 104.769 113.281 109.966 109.16 113.659C102.757 119.478 95.4734 118.873 87.4737 118.913C81.6218 118.955 75.7699 118.955 69.9183 118.915C61.6985 118.868 51.3589 119.209 43.3578 118.814L41.1392 116.758C36.3663 111.84 31.5306 106.984 26.6328 102.192C42.57 101.895 59.2821 102.137 75.2733 102.145L88.3804 102.173C91.198 102.18 96.1836 102.799 98.2401 100.825C100.287 98.8608 99.6648 96.7874 97.9297 94.8551C94.755 91.3194 91.3136 87.9922 87.9635 84.6207L68.352 64.863C70.2353 64.8509 72.1504 64.7934 74.0362 64.7534Z" fill="white"/>
<path d="M170.505 48.6975C178.846 47.6079 187.326 50.2757 193.414 56.0596C191.942 57.9273 187.501 62.029 185.567 64.0127C181.536 60.7683 178.135 59.8129 173.012 59.7257C167.817 59.637 163.079 61.6654 163.127 67.6C163.194 73.8757 170.823 74.6687 175.589 75.092C182.465 75.7033 192.013 78.5799 194.011 86.3322C198.599 104.145 187.125 113.062 170.634 113.19C170.469 113.191 170.304 113.191 170.139 113.188C161.848 113.031 154.276 110.963 148.438 104.819C149.909 102.589 154.484 98.402 156.504 96.592C157.13 96.9962 157.561 97.4038 158.132 97.8693C162.176 101.167 168.667 102.368 173.748 101.844C176.461 101.564 179.511 100.705 181.237 98.4473C182.657 96.589 182.697 94.8188 182.429 92.5375C181.656 85.9639 170.26 86.7075 165.365 85.3564C162.082 84.6059 159.091 83.5332 156.364 81.4424C149.033 75.8209 149.468 62.729 154.744 55.8859C158.516 50.9934 164.62 49.3568 170.505 48.6975Z" fill="white"/>
<path d="M449.885 48.9229C453.241 48.723 457.242 48.8687 460.59 49.0148C460.889 52.6207 460.727 58.3866 460.727 62.1355L460.67 84.7596C462.634 82.5501 464.259 80.1434 466.114 77.861C469.267 73.9859 472.431 70.1225 475.581 66.2438C480.016 66.0605 485.348 66.2275 489.845 66.2557C486.813 70.3649 477.022 81.2509 473.482 84.851C477.453 90.2292 482.872 99.4453 486.692 105.409C487.944 107.621 489.884 110.464 491.313 112.643C488.506 112.581 478.603 113.4 477.195 112.554C474.925 111.19 466.91 96.1246 465.532 93.4789C464.714 94.7548 461.91 97.2029 461.501 97.9967C460.003 100.9 460.785 109.178 460.741 112.809C457.632 113.089 452.267 112.898 449.098 112.835C448.727 107.969 448.982 103.477 449.007 98.655C449.037 93.1271 448.988 87.531 448.963 81.9981C448.903 74.7508 448.895 67.5029 448.944 60.2554C448.941 57.0209 448.875 53.1726 449.139 49.9114C449.194 49.2343 449.353 49.2749 449.885 48.9229Z" fill="white"/>
<path d="M203.196 49.2307C207.039 49.2619 210.907 49.3265 214.747 49.2058C214.868 56.0754 214.773 63.2473 214.778 70.1401C218.271 67.3499 221.537 65.3218 226.151 65.5772C242.683 66.4914 241.332 80.1922 241.336 91.3201L241.339 112.706C237.517 112.598 233.49 112.659 229.649 112.665C229.745 106.027 229.693 99.2607 229.698 92.6115C229.749 86.6501 230.955 76.4944 222.344 76.429C213.033 76.3583 214.75 87.3937 214.757 93.9822L214.793 112.662L203.019 112.675L203.051 67.3695C203.046 65.1307 202.892 50.6143 203.196 49.2307Z" fill="white"/>
<path d="M421.237 65.7705C432.063 64.6671 438.877 71.0327 439.225 81.8815C439.379 86.6713 439.272 91.5142 439.253 96.309C439.231 101.793 439.489 107.342 439.34 112.816C435.553 112.997 431.325 112.908 427.502 112.896C427.241 106.556 427.565 99.954 427.486 93.5812C427.409 87.4406 427.966 84.5286 425.699 78.6445C422.549 76.4623 419.64 75.597 416.084 77.3542C411.109 81.0821 412.591 85.6356 412.56 91.4352C412.47 98.5478 412.426 105.661 412.429 112.774C409.234 113.026 404.185 112.893 400.837 112.906C400.505 108.843 400.788 102.518 400.752 98.2675C400.659 87.6051 400.92 76.8398 400.656 66.1808C404.512 66.2122 408.367 66.2053 412.226 66.1598C412.302 67.3079 412.22 68.6719 412.182 69.8396C415.925 67.1778 416.775 66.6825 421.237 65.7705Z" fill="white"/>
<path d="M330.866 49.1683C335.059 49.1584 339.255 49.1222 343.448 49.0601C343.689 53.7591 343.448 59.7362 343.497 64.5454C343.621 76.7916 343.321 89.1835 343.557 101.423C352.852 101.563 362.621 101.461 371.926 101.407C372.042 104.008 372.519 110.74 371.861 112.881L344.713 112.704C340.972 112.701 334.595 113.241 331.121 112.572C330.685 111.943 330.737 109.952 330.759 109.131C331.253 89.1882 330.432 69.0884 330.866 49.1683Z" fill="white"/>
<path d="M287.418 48.4287L294.805 48.4323C295.052 51.2531 294.939 55.5885 294.918 58.5104C286.265 58.4576 286.208 58.8307 286.367 67.3967C289.169 67.4023 291.968 67.3711 294.767 67.3034C295.005 70.1063 294.907 73.6434 294.854 76.4954C292.001 76.4247 289.202 76.4855 286.35 76.5366L286.4 112.692C282.596 112.573 278.412 112.652 274.581 112.65C274.652 100.622 274.666 88.593 274.616 76.5645C273.019 76.4551 271.299 76.4924 269.691 76.4943C269.751 73.4595 269.748 70.4236 269.68 67.3887L274.611 67.3407C274.548 57.5036 275.294 49.1891 287.418 48.4287Z" fill="white"/>
<path d="M302.065 53.7615C306.071 53.8056 310.075 53.7915 314.081 53.7195C314.26 57.874 314.109 63.171 314.109 67.4142C316.74 67.4051 319.375 67.3606 322.006 67.2803C322.075 69.2639 322.665 74.3343 321.828 75.7052C320.588 76.8917 316.03 76.5223 314.095 76.5424L314.059 90.899C314.048 93.8443 313.511 99.6219 315.401 101.833C317.081 102.873 319.899 102.517 321.954 102.462C322.16 104.221 322.127 106.967 322.152 108.813C322.284 110.14 322.163 111.39 322.072 112.715C316.625 112.654 310.009 113.309 305.953 109.174C304.337 107.496 303.19 105.417 302.627 103.149C301.667 99.2737 302.065 81.612 302.084 76.5397L297.402 76.4714L297.375 67.4636L302.062 67.3374L302.065 53.7615Z" fill="white"/>
<path d="M251.294 66.1856C255.212 66.2336 259.134 66.2204 263.052 66.1453L263.044 96.5457C263.047 101.298 263.297 108.081 263.014 112.685C259.169 112.576 254.974 112.649 251.102 112.642C251.733 97.5856 250.866 81.3691 251.294 66.1856Z" fill="white"/>
<path d="M378.603 66.1394C381.709 66.3909 387.11 66.2051 390.285 66.1607C390.694 71.3702 390.447 82.51 390.378 88.0155C390.288 95.4279 390.738 105.492 390.364 112.669C388.353 113.029 381.141 112.892 378.658 112.888C378.389 108.439 378.63 101.24 378.641 96.642C378.685 86.4745 378.672 76.3069 378.603 66.1394Z" fill="white"/>
<path d="M119.963 108.433C125.812 107.154 131.586 110.88 132.87 116.762C134.154 122.645 130.462 128.462 124.619 129.766C118.758 131.073 112.956 127.346 111.669 121.447C110.382 115.547 114.098 109.717 119.963 108.433Z" fill="white"/>
<path d="M34.9609 29.7948C40.9541 29.7688 45.8214 34.6595 45.8038 40.6898C45.7862 46.7203 40.8907 51.5825 34.8978 51.5212C28.966 51.4607 24.1937 46.5955 24.211 40.6266C24.2283 34.6574 29.0286 29.8205 34.9609 29.7948Z" fill="white"/>
<path d="M381.526 48.4289C383.208 48.1271 388.002 47.824 389.451 48.6606C391.054 49.5873 390.974 57.3051 390.093 58.4325L389.103 58.5225C385.574 58.4985 382.045 58.499 378.516 58.5241C378.532 56.3646 378.412 50.7171 378.749 48.948C379.268 48.4933 380.761 48.4891 381.526 48.4289Z" fill="white"/>
<path d="M251.008 48.7685C254.578 48.9726 259.523 48.9165 263.09 48.7456C263.09 52.0773 263.101 55.1206 263.282 58.452C261.584 58.6986 253.175 58.5376 250.961 58.5296L251.008 48.7685Z" fill="white"/>
</svg>
