<svg width="339" height="160" viewBox="0 0 339 160" fill="none" xmlns="http://www.w3.org/2000/svg">
<path d="M186.828 10C187.69 10.2826 188.597 11.0097 189.274 11.6102C197.906 19.2737 206.558 26.9333 215.126 34.6632C215.551 35.0449 215.949 35.5079 216 36.0694C215.537 36.4453 214.997 36.5384 214.409 36.5564C203.944 36.8771 193.289 36.2717 182.847 36.6927C182.503 47.9568 182.788 60.6065 182.792 71.9762C182.806 74.0233 182.788 76.0706 182.737 78.1171C181.528 79.7415 173.797 89.7961 172.573 90C171.768 88.9301 172.046 79.1553 172.048 77.0345L172.052 58.4897L172.044 38.3399C172.042 34.4143 171.943 29.9859 172.134 26.0947C176.984 25.8372 181.882 26.1541 186.643 25.8629C186.881 21.4494 186.245 13.8044 186.828 10Z" fill="white"/>
<path d="M153.744 10L154.006 10.0374C154.983 10.837 154.324 23.4363 154.598 25.689C159.084 26.0501 164.165 25.6313 168.886 25.9261C169.067 30.8023 168.962 36.1129 168.962 41.0264L168.958 67.231L168.971 80.1464C168.974 82.866 169.154 87.5409 168.577 90L168.354 89.8114C166.563 88.3198 159.933 79.8525 158.431 77.6869C158.326 76.1216 158.365 74.1972 158.357 72.6032C158.362 60.6772 158.52 48.3777 158.313 36.4819C147.521 36.0576 135.626 36.8914 125 36.2017C126.514 33.9852 128.632 32.3339 130.627 30.544L138.217 23.7402C142.53 19.8723 149.383 13.347 153.744 10Z" fill="white"/>
<path d="M76 124C81.9768 124 87 129.049 87 135.5C87 141.951 81.9768 147 76 147C70.0232 147 65 141.951 65 135.5C65 129.049 70.0232 124 76 124Z" stroke="white" stroke-width="6"/>
<path d="M37.8242 122.009C38.9116 121.984 40.0961 122.018 41.1928 122.032L45.45 134.658C46.224 136.96 47.45 140.301 47.8848 142.608C49.931 136.16 52.4478 128.484 54.1777 122.003C56.1031 121.997 58.0712 122.032 60 122.047L58.6929 125.769C58.1594 127.093 57.6285 128.699 57.1765 130.062C54.9794 136.684 52.315 143.298 50.2561 149.952L45.7687 149.968C45.2912 148.276 43.7046 144.593 43.0055 142.765C41.7357 139.364 40.5734 135.922 39.5208 132.445C38.4272 137.423 35.1745 145.047 33.4129 150C31.9826 149.935 30.3815 149.952 28.9372 149.935C28.1775 147.224 26.5303 143.026 25.5494 140.288L19 122.022L24.8231 122.026C26.6593 128.543 29.2115 136.097 31.3158 142.559C31.591 140.779 32.9361 136.988 33.5582 135.079L37.8242 122.009Z" fill="white"/>
<path d="M194.439 122.004C196.941 121.987 199.494 122.027 202 122.04C200.592 123.168 198.467 125.459 197.122 126.813C194.082 129.901 191.02 132.969 187.937 136.016C190.417 138.431 192.881 140.949 195.327 143.401C197.497 145.612 199.684 147.806 201.892 149.981C199.383 150.017 196.821 149.991 194.309 149.991C190.664 146.402 186.752 142.384 183.004 138.95C183.211 141.867 183.012 146.92 182.996 149.998L177.073 149.985C176.929 143.206 177.132 136.369 177.023 129.583C176.983 127.074 176.989 124.511 177.087 122.008L182.998 122.014C183.012 125.701 183.096 129.642 182.946 133.306C186.457 129.645 190.736 125.511 194.439 122.004Z" fill="white"/>
<path d="M121.087 122.114C128.004 122.102 137.273 121.815 144 122.199C142.334 123.686 140.119 126.061 138.582 127.721C134.823 127.645 130.471 127.865 126.785 127.633L126.761 133.291C129.357 133.223 132.223 133.291 134.839 133.297L135.194 133.343C135.167 134.157 132.201 137.656 131.474 138.756L131.343 138.959C129.826 138.959 128.295 138.989 126.787 138.837C126.715 142.507 126.761 146.319 126.756 150L121.118 149.981C120.931 141.185 121.002 130.93 121.087 122.114Z" fill="white"/>
<path d="M149.093 122L174 122.019C172.165 123.516 169.721 125.946 168.042 127.63C163.965 127.554 159.263 127.775 155.265 127.542L155.238 133.224C158.047 133.155 161.155 133.224 163.987 133.23L164.372 133.274C164.342 134.099 161.134 137.592 160.335 138.721L160.201 138.915C158.557 138.915 156.9 138.946 155.266 138.795C155.188 142.478 155.238 146.306 155.232 150L149.126 149.983C148.927 141.135 149.001 130.874 149.093 122Z" fill="white"/>
<path d="M270.138 122L293 122.025C291.42 123.41 288.932 126.1 287.47 127.699C284.81 127.402 278.794 127.657 275.756 127.6C275.662 129.508 275.696 131.303 275.72 133.208L283.651 133.244L284.169 133.32C284.084 134.124 281.135 137.616 280.412 138.745L280.299 138.924L275.743 138.901C275.584 142.389 275.674 146.47 275.67 150L270.073 149.983C270.097 140.969 269.857 130.928 270.138 122Z" fill="white"/>
<path d="M297.042 122.063C304.99 121.894 313.044 122.13 320.999 122.031C321.005 123.885 320.986 125.739 320.942 127.593C317.968 127.555 314.759 127.649 311.766 127.675C311.68 131.674 311.742 135.968 311.741 139.987L311.728 150L306.323 149.989C306.202 142.61 306.354 135.1 306.266 127.679L297.02 127.5C296.987 125.688 296.995 123.874 297.042 122.063Z" fill="white"/>
<path d="M94.0014 122L100.013 122.008L100.037 144.429C104.92 144.343 110.112 144.406 115 144.465L114.991 150L94 149.983L94.0014 122Z" fill="white"/>
<path d="M189.655 43.0543C193.462 42.9342 197.346 43.057 201.161 43.0156C202.173 43.0046 204.335 42.9239 205 43.6136C204.612 44.7566 201.821 47.104 200.788 48.0573C199.774 49.0454 198.671 50.0197 197.616 50.9762C194.457 51.0221 191.297 51.0016 188.138 50.9148C188.048 49.1826 187.85 44.8763 188.198 43.3591C188.693 43.0369 188.988 43.1093 189.655 43.0543Z" fill="white"/>
<path d="M139.145 43.0805C143.177 43.0046 150.162 42.8975 153.923 43.2144C154.049 45.7841 153.994 48.3608 153.943 50.9311L151.03 50.9912C148.688 51.0091 146.346 50.9997 144.005 50.9628C141.925 49.1098 137.397 45.3201 136 43.2749C136.991 43.1844 138.139 43.1397 139.145 43.0805Z" fill="white"/>
<path d="M246.163 122H252.146L265 150H259.074L256.704 144.667L241.296 144.705L239.321 150H233L246.163 122ZM243.667 139.41H254.333L249.198 127.905L243.667 139.41Z" fill="white"/>
<path d="M216.773 140.476H211.775V150H206.007L206 122L216.963 122C218.501 122 219.873 122.076 221.077 122.229C222.282 122.381 223.423 122.648 224.499 123.029C225.602 123.41 226.512 123.917 227.229 124.552C227.973 125.187 228.55 126.013 228.96 127.029C229.395 128.019 229.613 129.187 229.613 130.533C229.613 134.762 227.539 138.19 222.541 139.714L231 150H224.463L216.773 140.476ZM211.768 126.762V135.524H217.155C218.924 135.524 220.611 135.524 221.765 135.143C225.994 132.095 224.072 129.048 223.687 128.667C222.534 127.524 222.354 127.575 221.38 127.143C220.432 126.686 218.894 126.762 217.151 126.762H211.768Z" fill="white"/>
</svg>
